<svg width="78" height="82" viewBox="0 0 78 82" fill="none" xmlns="http://www.w3.org/2000/svg">
<path d="M46.302 3.00775C36.0856 3.00775 34.1531 2.62813 25.4211 7.18395C15.1706 13.2583 9.85543 15.1566 5.67926 27.3055C0.0743745 43.6106 1.76397 71.5636 25.4211 77.0398C34.9368 79.2425 59.2102 82.7343 69.8404 61.4741C73.2573 54.6405 76.3531 44.0138 73.2573 34.8985C66.8931 16.1597 62.2474 17.4345 47.0613 13.2583" stroke="black" stroke-width="6" stroke-linecap="round"/>
<path d="M19.7263 46.7098C26.1804 50.5063 29.2176 55.0621 29.9769 58.0993C29.9769 58.7533 31.9988 63.8821 32.2548 63.7941C32.8309 63.5961 33.069 62.4906 33.6891 61.7798C34.9124 60.3772 36.2317 57.7683 37.359 56.4753C40.401 52.986 42.9644 49.0537 45.5004 45.1912C48.0364 41.3287 49 40 52 33" stroke="#5477FA" stroke-width="13" stroke-linecap="round"/>
</svg>
